<svg width="52" height="52" viewBox="0 0 52 52" xmlns="http://www.w3.org/2000/svg">
    <g fill="none" fill-rule="evenodd">
        <path d="M0 0h52v52H0z"/>
        <path d="M14.79 14.857v-4.024h2.638v4.024h3.956v2.683h-3.956v4.023H14.79V17.54h-3.957v-2.683h3.957zm3.956 8.048V18.88h3.957v-4.024h9.232l2.413 2.683h4.181c1.45 0 2.638 1.207 2.638 2.682v16.095c0 1.476-1.187 2.683-2.638 2.683H17.428c-1.451 0-2.638-1.207-2.638-2.683V22.905h3.956zm9.232 12.071c3.64 0 6.594-3.004 6.594-6.706 0-3.702-2.954-6.707-6.594-6.707s-6.594 3.005-6.594 6.707 2.954 6.706 6.594 6.706zm-4.22-6.706c0 2.374 1.886 4.292 4.22 4.292 2.335 0 4.22-1.918 4.22-4.292 0-2.374-1.885-4.292-4.22-4.292-2.334 0-4.22 1.918-4.22 4.292z" fill="#D0122D" fill-rule="nonzero"/>
    </g>
</svg>
