<svg width="24" height="24" viewBox="0 0 24 24" xmlns="http://www.w3.org/2000/svg">
    <g fill="#FFF" fill-rule="nonzero">
        <path d="M11.323 4.39 3.106 18.582a.783.783 0 0 0 .678 1.175h16.432c.603 0 .98-.653.678-1.175L12.677 4.39a.783.783 0 0 0-1.354 0zM12 6.344l6.86 11.848H5.14L12 6.344z"/>
        <path d="M12 15.204c.413 0 .75.32.78.724l.003.059v.373a.783.783 0 0 1-1.563.058l-.003-.058v-.373c0-.433.35-.783.783-.783zM12 9.229c.412 0 .75.318.78.723l.003.058.002 3.735a.783.783 0 0 1-1.562.06l-.003-.059-.003-3.734c0-.432.35-.783.782-.783z"/>
    </g>
</svg>
